<?xml version="1.0" encoding="utf-8"?>
<!-- Generator: Adobe Illustrator 22.1.0, SVG Export Plug-In . SVG Version: 6.00 Build 0)  -->
<svg version="1.0" id="Calque_1" xmlns="http://www.w3.org/2000/svg" xmlns:xlink="http://www.w3.org/1999/xlink" x="0px" y="0px"
	 width="343.6px" height="141.8px" viewBox="0 0 343.6 141.8" style="enable-background:new 0 0 343.6 141.8;" xml:space="preserve"
	>
<style type="text/css">
	.st0{fill:#1D1D1B;}
	.st1{fill:#04BAEE;}
	.st2{fill:#2D979D;}
	.st3{fill:#ED7203;}
</style>
<path class="st0" d="M17.5,56.2c-6.8,0-11.5-1.6-14.1-4.8c-1.8-2.2-2.7-5.2-2.7-9.1c0-1.8,0.2-3.7,0.6-5.8l2.5-14.4
	C6,9.3,13.9,2.9,27.4,2.9c5.6,0,9.8,1.2,12.7,3.6c2.9,2.4,4.3,5.6,4.3,9.8c0,1.7-0.2,3.4-0.7,5.1c-0.5,1.7-0.9,3-1.3,3.9l-0.7,1.3
	H28.9c1.2-1.7,1.9-3.7,1.9-6c0-4.3-1.8-6.5-5.4-6.5c-4.8,0-7.8,2.8-8.7,8.4l-2.4,13.8c-0.2,1.3-0.4,2.6-0.4,3.8c0,3.3,2,5,5.9,5
	c3.9,0,6.4-2,7.5-5.9h-5.9l1.4-8h19.1l-1.2,6.2l-0.4,2.1C38.3,50.6,30.7,56.2,17.5,56.2"/>
<path class="st0" d="M81,44.1c0,1.2,0.6,1.9,1.9,1.9c1.3,0,2.3-0.2,3.2-0.7l-0.4,8.1c-2.3,1.9-4.9,2.8-7.8,2.8
	c-5.4,0-8.4-2.1-8.9-6.3c-2.9,4.2-6.8,6.3-11.6,6.3c-4.9,0-8-1.1-9.5-3.3c-1-1.4-1.4-3-1.4-4.8c0-1.8,0.1-3.4,0.4-4.9l4-22.7h12.2
	l-3.4,19.1c-0.1,0.9-0.2,1.7-0.2,2.6c0,2.3,1.3,3.5,3.9,3.5c2.2,0,3.9-0.7,5.2-2.2l4.1-23h12.2l-4,22.7C81,43.6,81,43.8,81,44.1"/>
<path class="st0" d="M105.8,46c1.1,0,2.1-0.2,3-0.7l-0.4,8.1c-2.3,1.9-4.8,2.8-7.7,2.8c-4.4,0-7.2-1-8.5-3c-0.9-1.3-1.3-2.8-1.3-4.3
	c0-1.5,0.1-2.8,0.3-4l4.3-24.3h12.2l-4,22.7c0,0.3-0.1,0.6-0.1,0.8C103.6,45.4,104.3,46,105.8,46 M96.9,8.9c0-3.1,0.7-5.3,2.1-6.7
	c1.4-1.4,3.5-2.1,6.4-2.1c4,0,6,1.8,6,5.3c0,3-0.7,5.2-2.1,6.6c-1.4,1.4-3.5,2.1-6.4,2.1C98.9,14,96.9,12.3,96.9,8.9"/>
<path class="st0" d="M136.3,33.1c0-2.1-1-3.1-3-3.1c-2,0-3.6,0.7-4.9,2.2l-4,23h-12.2l6.1-34.6h11.4l-0.8,4.2
	c2.8-3.5,6.4-5.3,10.7-5.3c4.3,0,7.1,1.1,8.4,3.2c0.8,1.3,1.2,2.9,1.2,4.6c0,1.7-0.1,3.3-0.4,4.8l-1.9,11.1c0,0.3-0.1,0.6-0.1,0.8
	c0,1.3,0.7,1.9,2.2,1.9c1.1,0,2.1-0.2,3-0.7l-0.4,8.1c-2.3,1.9-4.8,2.8-7.7,2.8c-6.5,0-9.8-2.7-9.8-8.2c0-1,0.1-2,0.3-3.1l1.7-9.6
	C136.2,34.5,136.3,33.7,136.3,33.1"/>
<path class="st0" d="M180.6,70.8c-3.8,3.6-8.1,5.3-12.9,5.3c-4.8,0-8.3-0.9-10.5-2.7c-2.1-1.8-3.2-4.1-3.2-7c0-4.2,2.7-7.9,8.1-11
	c-4.1-1.3-6.1-4.4-6.1-9.3c0-1.2,0.1-2.5,0.4-4l1.4-8.4c0.8-4.3,2.5-7.8,5.3-10.3c2.8-2.6,6.4-3.9,10.8-3.9s7.5,1.1,9.1,3.2l0.4-2.3
	h10.7l-6.3,35.8C186.8,62.5,184.4,67.3,180.6,70.8 M169.4,65.9c3.1,0,5.2-2.8,6.1-8.5l0.7-4.2c-6.7,3.1-10,6.3-10,9.4
	c0,1,0.3,1.7,0.8,2.3C167.6,65.6,168.3,65.9,169.4,65.9 M168.9,40.7c-0.1,0.4-0.1,1-0.1,1.8c0,0.8,0.4,1.5,1.1,2.3
	c0.7,0.7,1.9,1.1,3.6,1.1c1.7,0,3.2-0.7,4.4-2l2.2-12.1c-0.7-1.2-1.9-1.8-3.8-1.8s-3.3,0.5-4.4,1.4c-1.1,1-1.7,2.3-2,3.9L168.9,40.7
	z"/>
<path class="st0" d="M230,44.1c0,1.2,0.6,1.9,1.9,1.9c1.3,0,2.3-0.2,3.2-0.7l-0.4,8.1c-2.3,1.9-4.9,2.8-7.8,2.8
	c-5.3,0-8.2-1.9-8.8-5.8c-2.4,3.8-5.9,5.8-10.6,5.8c-7.9,0-11.8-3.4-11.8-10.2c0-1.1,0.1-2.4,0.4-3.8l1.5-8.4
	c0.8-4.3,2.5-7.8,5.3-10.3c2.8-2.6,6.4-3.9,10.8-3.9s7.5,1,9,3.1l0.4-2.2h10.9l-4,22.7C230.1,43.6,230,43.8,230,44.1 M208.7,40.7
	c-0.1,0.4-0.1,1-0.1,1.8c0,0.8,0.4,1.5,1.1,2.3c0.7,0.7,1.9,1.1,3.6,1.1c1.7,0,3.2-0.7,4.4-2l2.2-12.1c-0.5-1.2-1.8-1.8-3.7-1.8
	c-3.7,0-5.9,1.8-6.5,5.3L208.7,40.7z"/>
<path class="st0" d="M299.2,46c1.1,0,2.1-0.2,3-0.7l-0.4,8.1c-2.3,1.9-4.8,2.8-7.7,2.8c-6.5,0-9.8-2.7-9.8-8.2c0-1,0.1-2,0.3-3.1
	l1.5-8.9c0.1-0.9,0.2-1.7,0.2-2.6c0-2.3-1.3-3.5-3.8-3.5c-2.5,0-4.5,1-5.9,3l-3.9,22.2h-12.2l3.4-19.2c0.1-0.9,0.2-1.7,0.2-2.6
	c0-2.3-1.3-3.5-3.9-3.5c-2.1,0-3.8,0.8-5.3,2.4l-4,22.8h-12.2l6.1-34.6h11.4l-0.8,4.3c2.9-3.6,6.5-5.3,10.9-5.3
	c6.2,0,9.8,2.1,10.7,6.2c2.9-4.1,6.7-6.2,11.6-6.2c4.8,0,8,1.1,9.4,3.2c1,1.5,1.4,3.1,1.4,4.9s-0.1,3.4-0.4,4.8l-1.8,10.7
	c0,0.3-0.1,0.6-0.1,0.8C297.1,45.4,297.8,46,299.2,46"/>
<path class="st0" d="M331.4,19.7c4.9,0,8.3,1.3,10.2,3.9c1.3,1.8,2,4,2,6.8c0,1.1-0.1,2.3-0.4,3.5l-1.4,8.4c-0.8,4.6-2.6,8-5.3,10.4
	c-2.7,2.4-6,3.6-10.1,3.6c-4,0-6.8-1.1-8.4-3.2l-3.9,22.2h-12.2l9.6-54.6h11.1l-0.4,1.9C324.5,20.6,327.6,19.7,331.4,19.7
	 M323.9,45.9c1.3,0,2.6-0.4,3.7-1.3c1.2-0.9,1.9-2.2,2.2-3.9l0.9-5.4c0.1-0.5,0.1-1.1,0.1-1.8c0-0.7-0.3-1.5-0.9-2.3
	c-0.6-0.8-1.7-1.2-3.2-1.2c-2.5,0-4.1,0.6-4.9,1.8l-2.2,12.1C320.4,45.2,321.8,45.9,323.9,45.9"/>
<path class="st0" d="M59.2,101h-8.6l-2.8,15.8h-13L44,64.9h22c5.4,0,9.3,1.2,11.6,3.7c1.7,1.9,2.5,4.4,2.5,7.3c0,1-0.1,2.1-0.3,3.2
	l-1.4,8.1c-0.7,4-2.8,7.3-6.3,9.8C68.5,99.7,64.2,101,59.2,101 M61.4,76.1H55l-2.4,13.6H59c3.9,0,6.2-1.8,6.8-5.3l0.5-3
	c0.1-0.4,0.1-1,0.1-1.7c0-0.7-0.4-1.5-1.1-2.4C64.7,76.6,63.4,76.1,61.4,76.1"/>
<path class="st0" d="M114.4,105.6c0,1.2,0.6,1.9,1.9,1.9c1.3,0,2.3-0.2,3.2-0.7l-0.4,8.1c-2.3,1.9-4.9,2.8-7.8,2.8
	c-5.3,0-8.2-1.9-8.8-5.8c-2.4,3.8-5.9,5.8-10.6,5.8c-7.9,0-11.8-3.4-11.8-10.2c0-1.2,0.1-2.4,0.4-3.8l1.5-8.4
	c0.8-4.3,2.5-7.8,5.3-10.3c2.8-2.6,6.4-3.9,10.8-3.9c4.4,0,7.5,1,9,3.1l0.4-2.2h10.9l-4,22.7C114.4,105.1,114.4,105.4,114.4,105.6
	 M93.1,102.2c-0.1,0.4-0.1,1-0.1,1.8c0,0.8,0.4,1.5,1.1,2.3c0.7,0.7,1.9,1.1,3.6,1.1c1.7,0,3.2-0.7,4.4-2l2.2-12.1
	c-0.5-1.2-1.8-1.8-3.7-1.8c-3.7,0-5.9,1.8-6.5,5.3L93.1,102.2z"/>
<path class="st0" d="M139.2,107.5c1.1,0,2.1-0.2,3-0.7l-0.4,8.1c-2.3,1.9-4.8,2.8-7.7,2.8c-4.4,0-7.2-1-8.5-3
	c-0.9-1.3-1.3-2.8-1.3-4.3c0-1.5,0.1-2.8,0.3-4l4.3-24.3h12.2l-4,22.7c0,0.3-0.1,0.6-0.1,0.8C137,106.9,137.7,107.5,139.2,107.5
	 M130.3,70.4c0-3.1,0.7-5.3,2.1-6.7c1.4-1.4,3.5-2.1,6.4-2.1c4,0,6,1.8,6,5.3c0,3-0.7,5.2-2.1,6.6c-1.4,1.4-3.5,2.1-6.4,2.1
	C132.3,75.6,130.3,73.8,130.3,70.4"/>
<path class="st0" d="M206.1,107.5c1.1,0,2.1-0.2,3-0.7l-0.4,8.1c-2.3,1.9-4.8,2.8-7.7,2.8c-6.5,0-9.8-2.7-9.8-8.2c0-1,0.1-2,0.3-3.1
	l1.5-8.9c0.1-0.9,0.2-1.7,0.2-2.6c0-2.3-1.3-3.5-3.8-3.5c-2.5,0-4.5,1-5.9,3l-3.9,22.2h-12.2l3.4-19.2c0.1-0.9,0.2-1.7,0.2-2.6
	c0-2.3-1.3-3.5-3.9-3.5c-2.1,0-3.8,0.8-5.3,2.4l-4,22.8h-12.2l6.1-34.6H163l-0.8,4.3c2.9-3.6,6.5-5.3,10.9-5.3
	c6.2,0,9.8,2.1,10.7,6.2c2.9-4.1,6.7-6.2,11.6-6.2s8,1.1,9.4,3.2c1,1.5,1.4,3.1,1.4,4.9c0,1.8-0.1,3.4-0.4,4.8l-1.8,10.7
	c0,0.3-0.1,0.5-0.1,0.8C204,106.9,204.7,107.5,206.1,107.5"/>
<path class="st0" d="M238.3,81.2c4.9,0,8.3,1.3,10.2,3.9c1.3,1.8,2,4,2,6.8c0,1.1-0.1,2.3-0.4,3.5l-1.4,8.4c-0.8,4.6-2.6,8-5.3,10.4
	c-2.7,2.4-6,3.6-10.1,3.6c-4,0-6.8-1.1-8.4-3.2l-3.9,22.2h-12.2l9.6-54.6h11.1l-0.4,1.9C231.4,82.1,234.5,81.2,238.3,81.2
	 M230.8,107.4c1.3,0,2.6-0.4,3.7-1.3c1.2-0.9,1.9-2.2,2.2-3.9l0.9-5.4c0.1-0.5,0.1-1.1,0.1-1.8c0-0.7-0.3-1.5-0.9-2.3
	c-0.6-0.8-1.7-1.2-3.2-1.2c-2.5,0-4.1,0.6-4.9,1.8l-2.2,12.1C227.3,106.7,228.7,107.4,230.8,107.4"/>
<path class="st0" d="M276.3,81.1c5.2,0,9.1,1.1,11.7,3.4c2.1,1.8,3.1,4.2,3.1,7.4c0,1.1-0.1,2.2-0.4,3.5l-1.5,8.4
	c-0.9,5.1-3,8.7-6.4,10.8c-3.3,2.1-7.8,3.2-13.4,3.2c-5.6,0-9.6-1.1-12.2-3.2c-1.9-1.6-2.9-4-2.9-7.1c0-1.1,0.1-2.3,0.4-3.7l1.5-8.4
	C258,85.8,264.7,81.1,276.3,81.1 M278.3,96.8c0.1-0.5,0.1-1.1,0.1-1.8c0-0.7-0.3-1.6-0.9-2.5c-0.6-0.9-1.7-1.4-3.3-1.4
	c-1.6,0-2.9,0.5-3.9,1.5c-1.1,1-1.7,2.4-2,4.1l-0.9,5.4c-0.1,0.5-0.1,1.1-0.1,1.8c0,0.7,0.3,1.5,0.9,2.4c0.6,0.9,1.7,1.3,3.3,1.3
	c1.6,0,2.9-0.5,3.9-1.6c1.1-1.1,1.7-2.4,2-3.9L278.3,96.8z"/>
<path class="st0" d="M308.8,105.6c0,1.2,0.6,1.9,1.9,1.9c1.3,0,2.3-0.2,3.2-0.7l-0.4,8.1c-2.3,1.9-4.9,2.8-7.8,2.8
	c-4.4,0-7.2-1-8.5-3c-0.8-1.3-1.2-2.7-1.2-4.2c0-1.5,0.1-2.9,0.3-4l7.8-44.3h12.2l-7.6,42.7C308.8,105.1,308.8,105.4,308.8,105.6"/>
<path class="st0" d="M46.6,141.6h-1.4c-0.2,0-0.3,0-0.4-0.1c-0.1-0.1-0.2-0.2-0.2-0.3l-1.3-3.3H37l-1.3,3.3c0,0.1-0.1,0.2-0.2,0.3
	c-0.1,0.1-0.2,0.1-0.4,0.1h-1.4l5.5-13.8H41L46.6,141.6z M37.5,136.5h5.2l-2.2-5.6c-0.1-0.3-0.3-0.8-0.4-1.3
	c-0.1,0.3-0.1,0.5-0.2,0.7c-0.1,0.2-0.1,0.4-0.2,0.6L37.5,136.5z"/>
<path class="st0" d="M54.1,140.2c0.4,0,0.7,0,1-0.1c0.3,0,0.6-0.1,0.9-0.2c0.3-0.1,0.5-0.2,0.8-0.3c0.2-0.1,0.5-0.2,0.7-0.3v-3.1
	h-2.1c-0.1,0-0.2,0-0.3-0.1c-0.1-0.1-0.1-0.2-0.1-0.3v-1.1h4.3v5.3c-0.3,0.3-0.7,0.5-1.1,0.7c-0.4,0.2-0.8,0.3-1.2,0.5
	c-0.4,0.1-0.9,0.2-1.4,0.3c-0.5,0.1-1,0.1-1.6,0.1c-1,0-1.9-0.2-2.8-0.5c-0.8-0.3-1.6-0.8-2.2-1.4c-0.6-0.6-1.1-1.4-1.4-2.2
	c-0.3-0.9-0.5-1.8-0.5-2.9c0-1.1,0.2-2,0.5-2.9c0.3-0.9,0.8-1.6,1.4-2.2c0.6-0.6,1.4-1.1,2.2-1.4c0.9-0.3,1.9-0.5,2.9-0.5
	c0.5,0,1.1,0,1.5,0.1c0.5,0.1,0.9,0.2,1.3,0.3c0.4,0.2,0.8,0.3,1.1,0.6c0.3,0.2,0.7,0.5,1,0.7l-0.5,0.9c-0.1,0.2-0.3,0.3-0.4,0.3
	c-0.1,0-0.2,0-0.3-0.1c-0.2-0.1-0.3-0.2-0.5-0.3c-0.2-0.1-0.4-0.3-0.7-0.4c-0.3-0.1-0.6-0.2-1-0.3c-0.4-0.1-0.9-0.1-1.4-0.1
	c-0.8,0-1.5,0.1-2.1,0.4c-0.6,0.3-1.2,0.6-1.6,1.1c-0.4,0.5-0.8,1-1,1.7c-0.2,0.7-0.4,1.4-0.4,2.3c0,0.9,0.1,1.7,0.4,2.3
	c0.2,0.7,0.6,1.3,1,1.7c0.5,0.5,1,0.8,1.6,1.1C52.7,140.1,53.3,140.2,54.1,140.2"/>
<path class="st0" d="M68.3,140.2c0.4,0,0.7,0,1-0.1c0.3,0,0.6-0.1,0.9-0.2c0.3-0.1,0.5-0.2,0.8-0.3c0.2-0.1,0.5-0.2,0.7-0.3v-3.1
	h-2.1c-0.1,0-0.2,0-0.3-0.1c-0.1-0.1-0.1-0.2-0.1-0.3v-1.1h4.3v5.3c-0.3,0.3-0.7,0.5-1.1,0.7c-0.4,0.2-0.8,0.3-1.2,0.5
	c-0.4,0.1-0.9,0.2-1.4,0.3c-0.5,0.1-1,0.1-1.6,0.1c-1,0-1.9-0.2-2.8-0.5c-0.8-0.3-1.6-0.8-2.2-1.4c-0.6-0.6-1.1-1.4-1.4-2.2
	c-0.3-0.9-0.5-1.8-0.5-2.9c0-1.1,0.2-2,0.5-2.9c0.3-0.9,0.8-1.6,1.4-2.2c0.6-0.6,1.4-1.1,2.2-1.4c0.9-0.3,1.9-0.5,2.9-0.5
	c0.5,0,1.1,0,1.5,0.1c0.5,0.1,0.9,0.2,1.3,0.3c0.4,0.2,0.8,0.3,1.1,0.6c0.3,0.2,0.7,0.5,1,0.7l-0.5,0.9c-0.1,0.2-0.3,0.3-0.4,0.3
	c-0.1,0-0.2,0-0.3-0.1c-0.2-0.1-0.3-0.2-0.5-0.3c-0.2-0.1-0.4-0.3-0.7-0.4c-0.3-0.1-0.6-0.2-1-0.3c-0.4-0.1-0.9-0.1-1.4-0.1
	c-0.8,0-1.5,0.1-2.1,0.4c-0.6,0.3-1.2,0.6-1.6,1.1c-0.4,0.5-0.8,1-1,1.7c-0.2,0.7-0.4,1.4-0.4,2.3c0,0.9,0.1,1.7,0.4,2.3
	c0.2,0.7,0.6,1.3,1,1.7c0.5,0.5,1,0.8,1.6,1.1C66.9,140.1,67.5,140.2,68.3,140.2"/>
<polygon class="st0" points="78.2,140 84.2,140 84.2,141.6 76.3,141.6 76.3,127.7 78.2,127.7 "/>
<path class="st0" d="M98.3,134.7c0,1-0.2,2-0.5,2.9c-0.3,0.9-0.8,1.6-1.4,2.2c-0.6,0.6-1.3,1.1-2.2,1.5c-0.8,0.3-1.8,0.5-2.8,0.5
	c-1,0-1.9-0.2-2.8-0.5c-0.8-0.3-1.6-0.8-2.2-1.5s-1.1-1.4-1.4-2.2c-0.3-0.9-0.5-1.8-0.5-2.9c0-1,0.2-2,0.5-2.9
	c0.3-0.9,0.8-1.6,1.4-2.2c0.6-0.6,1.3-1.1,2.2-1.5c0.8-0.3,1.8-0.5,2.8-0.5c1,0,1.9,0.2,2.8,0.5c0.8,0.3,1.6,0.8,2.2,1.5
	c0.6,0.6,1.1,1.4,1.4,2.2C98.2,132.7,98.3,133.6,98.3,134.7 M96.4,134.7c0-0.9-0.1-1.6-0.3-2.3c-0.2-0.7-0.6-1.2-1-1.7
	c-0.4-0.5-0.9-0.8-1.5-1.1c-0.6-0.2-1.3-0.4-2-0.4c-0.7,0-1.4,0.1-2,0.4c-0.6,0.3-1.1,0.6-1.6,1.1c-0.4,0.5-0.8,1-1,1.7
	c-0.2,0.7-0.3,1.4-0.3,2.3c0,0.9,0.1,1.6,0.3,2.3c0.2,0.7,0.6,1.2,1,1.7c0.4,0.5,0.9,0.8,1.6,1.1c0.6,0.2,1.3,0.4,2,0.4
	c0.7,0,1.4-0.1,2-0.4c0.6-0.2,1.1-0.6,1.5-1.1c0.4-0.5,0.8-1,1-1.7C96.3,136.3,96.4,135.5,96.4,134.7"/>
<path class="st0" d="M107.9,137.1c0.1,0.2,0.1,0.3,0.2,0.5c0.1-0.2,0.1-0.4,0.2-0.5c0.1-0.2,0.2-0.3,0.2-0.5l4.7-8.5
	c0.1-0.1,0.2-0.2,0.3-0.3c0.1,0,0.2,0,0.4,0h1.4v13.9h-1.6v-10.2c0-0.1,0-0.3,0-0.4c0-0.2,0-0.3,0-0.5l-4.7,8.7
	c-0.2,0.3-0.4,0.4-0.7,0.4H108c-0.3,0-0.5-0.1-0.7-0.4l-4.9-8.7c0,0.2,0,0.3,0,0.5c0,0.2,0,0.3,0,0.4v10.2h-1.6v-13.9h1.4
	c0.2,0,0.3,0,0.4,0c0.1,0,0.2,0.1,0.3,0.3l4.8,8.5C107.8,136.7,107.9,136.9,107.9,137.1"/>
<path class="st0" d="M127.2,127.7v1.5h-6.7v4.6h5.4v1.5h-5.4v4.7h6.7v1.5h-8.5v-13.9H127.2z M126.4,124.4l-2.8,2.1
	c-0.1,0.1-0.2,0.1-0.3,0.2c-0.1,0-0.2,0-0.3,0h-1.3l2-2c0.1-0.1,0.1-0.1,0.2-0.2c0.1,0,0.1-0.1,0.2-0.1c0.1,0,0.1,0,0.2-0.1
	c0.1,0,0.2,0,0.3,0H126.4z"/>
<path class="st0" d="M132,135.8v5.8h-1.9v-13.8h3.9c0.9,0,1.6,0.1,2.3,0.3c0.6,0.2,1.2,0.4,1.6,0.8c0.4,0.3,0.7,0.7,0.9,1.2
	c0.2,0.5,0.3,1,0.3,1.6c0,0.5-0.1,0.9-0.2,1.4c-0.2,0.4-0.4,0.8-0.7,1.1c-0.3,0.3-0.7,0.6-1.1,0.9c-0.4,0.2-0.9,0.4-1.4,0.5
	c0.2,0.1,0.4,0.3,0.6,0.6l4,5.5h-1.7c-0.3,0-0.6-0.1-0.8-0.4l-3.6-4.9c-0.1-0.2-0.2-0.3-0.4-0.3c-0.1-0.1-0.3-0.1-0.6-0.1H132z
	 M132,134.5h2c0.5,0,1-0.1,1.4-0.2c0.4-0.1,0.8-0.3,1-0.6c0.3-0.2,0.5-0.5,0.6-0.9c0.1-0.3,0.2-0.7,0.2-1.1c0-0.8-0.3-1.4-0.8-1.9
	c-0.5-0.4-1.4-0.6-2.4-0.6h-2V134.5z"/>
<path class="st0" d="M153.7,141.6h-1.4c-0.2,0-0.3,0-0.4-0.1c-0.1-0.1-0.2-0.2-0.2-0.3l-1.3-3.3h-6.2l-1.3,3.3
	c0,0.1-0.1,0.2-0.2,0.3c-0.1,0.1-0.2,0.1-0.4,0.1h-1.5l5.5-13.8h1.9L153.7,141.6z M144.7,136.5h5.2l-2.2-5.6
	c-0.1-0.3-0.3-0.8-0.4-1.3c-0.1,0.3-0.1,0.5-0.2,0.7s-0.1,0.4-0.2,0.6L144.7,136.5z"/>
<polygon class="st0" points="163.6,127.7 163.6,129.3 159.2,129.3 159.2,141.6 157.3,141.6 157.3,129.3 152.8,129.3 152.8,127.7 "/>
<rect x="166" y="127.7" class="st0" width="1.9" height="13.9"/>
<path class="st0" d="M184.4,134.7c0,1-0.2,2-0.5,2.9c-0.3,0.9-0.8,1.6-1.4,2.2c-0.6,0.6-1.3,1.1-2.2,1.5c-0.8,0.3-1.8,0.5-2.8,0.5
	c-1,0-1.9-0.2-2.8-0.5c-0.8-0.3-1.6-0.8-2.2-1.5c-0.6-0.6-1.1-1.4-1.4-2.2c-0.3-0.9-0.5-1.8-0.5-2.9c0-1,0.2-2,0.5-2.9
	c0.3-0.9,0.8-1.6,1.4-2.2c0.6-0.6,1.3-1.1,2.2-1.5c0.8-0.3,1.8-0.5,2.8-0.5c1,0,1.9,0.2,2.8,0.5c0.8,0.3,1.6,0.8,2.2,1.5
	c0.6,0.6,1.1,1.4,1.4,2.2C184.3,132.7,184.4,133.6,184.4,134.7 M182.5,134.7c0-0.9-0.1-1.6-0.3-2.3c-0.2-0.7-0.6-1.2-1-1.7
	c-0.4-0.5-0.9-0.8-1.5-1.1c-0.6-0.2-1.3-0.4-2-0.4c-0.7,0-1.4,0.1-2,0.4c-0.6,0.3-1.1,0.6-1.5,1.1c-0.4,0.5-0.8,1-1,1.7
	c-0.2,0.7-0.3,1.4-0.3,2.3c0,0.9,0.1,1.6,0.3,2.3c0.2,0.7,0.6,1.2,1,1.7c0.4,0.5,0.9,0.8,1.5,1.1c0.6,0.2,1.3,0.4,2,0.4
	c0.7,0,1.4-0.1,2-0.4c0.6-0.2,1.1-0.6,1.5-1.1c0.4-0.5,0.8-1,1-1.7C182.4,136.3,182.5,135.5,182.5,134.7"/>
<path class="st0" d="M188.3,127.8c0.1,0,0.2,0.1,0.3,0.3l8,10.4c0-0.2,0-0.3,0-0.5c0-0.2,0-0.3,0-0.5v-9.8h1.6v13.8h-0.9
	c-0.1,0-0.3,0-0.4-0.1c-0.1-0.1-0.2-0.1-0.3-0.3l-8-10.4c0,0.2,0,0.3,0,0.5c0,0.2,0,0.3,0,0.4v9.9H187v-13.8h1
	C188.1,127.7,188.2,127.8,188.3,127.8"/>
<polygon class="st1" points="0,64.5 0,76.8 37.8,76.8 40,64.5 "/>
<polygon class="st2" points="0,104.5 0,116.7 30.6,116.7 32.8,104.5 "/>
<polygon class="st3" points="0,84.5 0,96.7 34.2,96.7 36.4,84.5 "/>
</svg>
